<?xml version="1.0" encoding="UTF-8" standalone="no"?> <svg width="32" height="32" viewBox="0 0 32 32" fill="none" xmlns="http://www.w3.org/2000/svg">
<path d="M29 2H3C2.73478 2 2.48043 2.10536 2.29289 2.29289C2.10536 2.48043 2 2.73478 2 3V29C2 29.2652 2.10536 29.5196 2.29289 29.7071C2.48043 29.8946 2.73478 30 3 30H29C29.2652 30 29.5196 29.8946 29.7071 29.7071C29.8946 29.5196 30 29.2652 30 29V3C30 2.73478 29.8946 2.48043 29.7071 2.29289C29.5196 2.10536 29.2652 2 29 2V2ZM28 28H4V4H28V28Z" fill="black"/>
<path d="M7 26H12C12.2652 26 12.5196 25.8946 12.7071 25.7071C12.8946 25.5196 13 25.2652 13 25C13 24.7348 12.8946 24.4804 12.7071 24.2929C12.5196 24.1054 12.2652 24 12 24H9.41L16 17.41L22.59 24H20C19.7348 24 19.4804 24.1054 19.2929 24.2929C19.1054 24.4804 19 24.7348 19 25C19 25.2652 19.1054 25.5196 19.2929 25.7071C19.4804 25.8946 19.7348 26 20 26H25C25.2652 26 25.5196 25.8946 25.7071 25.7071C25.8946 25.5196 26 25.2652 26 25V20C26 19.7348 25.8946 19.4804 25.7071 19.2929C25.5196 19.1054 25.2652 19 25 19C24.7348 19 24.4804 19.1054 24.2929 19.2929C24.1054 19.4804 24 19.7348 24 20V22.59L17.41 16L24 9.41V12C24 12.2652 24.1054 12.5196 24.2929 12.7071C24.4804 12.8946 24.7348 13 25 13C25.2652 13 25.5196 12.8946 25.7071 12.7071C25.8946 12.5196 26 12.2652 26 12V7C26 6.73478 25.8946 6.48043 25.7071 6.29289C25.5196 6.10536 25.2652 6 25 6H20C19.7348 6 19.4804 6.10536 19.2929 6.29289C19.1054 6.48043 19 6.73478 19 7C19 7.26522 19.1054 7.51957 19.2929 7.70711C19.4804 7.89464 19.7348 8 20 8H22.59L16 14.59L9.41 8H12C12.2652 8 12.5196 7.89464 12.7071 7.70711C12.8946 7.51957 13 7.26522 13 7C13 6.73478 12.8946 6.48043 12.7071 6.29289C12.5196 6.10536 12.2652 6 12 6H7C6.73478 6 6.48043 6.10536 6.29289 6.29289C6.10536 6.48043 6 6.73478 6 7V12C6 12.2652 6.10536 12.5196 6.29289 12.7071C6.48043 12.8946 6.73478 13 7 13C7.26522 13 7.51957 12.8946 7.70711 12.7071C7.89464 12.5196 8 12.2652 8 12V9.41L14.59 16L8 22.59V20C8 19.7348 7.89464 19.4804 7.70711 19.2929C7.51957 19.1054 7.26522 19 7 19C6.73478 19 6.48043 19.1054 6.29289 19.2929C6.10536 19.4804 6 19.7348 6 20V25C6 25.2652 6.10536 25.5196 6.29289 25.7071C6.48043 25.8946 6.73478 26 7 26Z" fill="black"/>
</svg>
