<?xml version="1.0" encoding="utf-8"?>
<!-- Generator: Adobe Illustrator 14.0.0, SVG Export Plug-In . SVG Version: 6.00 Build 43363)  -->
<!DOCTYPE svg PUBLIC "-//W3C//DTD SVG 1.1//EN" "http://www.w3.org/Graphics/SVG/1.1/DTD/svg11.dtd">
<svg version="1.1" id="Layer_1" xmlns="http://www.w3.org/2000/svg" xmlns:xlink="http://www.w3.org/1999/xlink" x="0px" y="0px"
	  viewBox="0 0 40 40" enable-background="new 0 0 40 40" xml:space="preserve">

<path d="M28.757,35.5c-2.557,0-4.637-2.079-4.637-4.637c0-0.508,0.095-1.02,0.291-1.562l0.053-0.147l-9.788-6.17l-0.11,0.115
	c-0.885,0.912-2.065,1.416-3.322,1.416c-2.556,0-4.636-2.081-4.636-4.638c0-2.558,2.08-4.637,4.636-4.637
	c1.241,0,2.409,0.489,3.289,1.374l0.106,0.107l9.877-5.731l-0.063-0.156c-0.221-0.558-0.333-1.131-0.333-1.7
	c0-2.556,2.08-4.635,4.637-4.635c2.556,0,4.636,2.079,4.636,4.635c0,2.559-2.08,4.639-4.636,4.639c-1.234,0-2.397-0.482-3.275-1.358
	l-0.106-0.107l-9.884,5.735l0.062,0.157c0.217,0.554,0.327,1.119,0.327,1.678c0,0.533-0.104,1.081-0.312,1.627l-0.057,0.149
	l9.769,6.156l0.111-0.116c0.892-0.947,2.086-1.466,3.365-1.466c2.556,0,4.636,2.078,4.636,4.635
	C33.393,33.421,31.313,35.5,28.757,35.5L28.757,35.5z M28.757,27.798c-1.052,0-2.019,0.534-2.587,1.433l-0.052,0.094
	c-0.284,0.487-0.429,1.004-0.429,1.539c0,1.691,1.376,3.067,3.067,3.067c1.69,0,3.066-1.376,3.066-3.067
	C31.823,29.173,30.447,27.798,28.757,27.798L28.757,27.798z M11.243,16.811c-1.69,0-3.066,1.376-3.066,3.067
	c0,1.69,1.376,3.068,3.066,3.068c1.041,0,2.002-0.527,2.571-1.406c0.329-0.523,0.496-1.089,0.496-1.662
	c0-0.522-0.14-1.028-0.411-1.508c-0.087-0.094-0.133-0.151-0.169-0.213l-0.045-0.116C13.097,17.259,12.206,16.811,11.243,16.811
	L11.243,16.811z M28.757,6.069c-1.691,0-3.067,1.376-3.067,3.065c0,1.692,1.376,3.069,3.067,3.069c1.69,0,3.066-1.377,3.066-3.069
	C31.823,7.445,30.447,6.069,28.757,6.069L28.757,6.069z"/>
</svg>
